<?xml version="1.0" encoding="utf-8"?>
<!-- Generator: Adobe Illustrator 14.0.0, SVG Export Plug-In . SVG Version: 6.00 Build 43363)  -->
<!DOCTYPE svg PUBLIC "-//W3C//DTD SVG 1.1//EN" "http://www.w3.org/Graphics/SVG/1.1/DTD/svg11.dtd">
<svg version="1.1" id="Layer_1" xmlns="http://www.w3.org/2000/svg" xmlns:xlink="http://www.w3.org/1999/xlink" x="0px" y="0px"
	 width="219.667px" height="45.333px" viewBox="0 0 219.667 45.333" enable-background="new 0 0 219.667 45.333"
	 xml:space="preserve">
<rect x="2.216" y="2.925" fill="#FFFFFF" width="215.215" height="38.96"/>
<rect x="2.65" y="3.71" fill="none" stroke="#010101" stroke-width="2.6212" width="214.483" height="38.092"/>
<rect x="60.925" y="7.942" fill="#010101" width="151.916" height="30.054"/>
<rect x="6.508" y="7.942" fill="#AFAFAF" width="56.625" height="30.054"/>
<path fill="#AFAFAF" d="M69.136,22.968c0,8.293-2.786,15.027-6.216,15.027c-3.435,0-6.222-6.734-6.222-15.027
	c0-8.296,2.787-15.026,6.222-15.026C66.35,7.942,69.136,14.672,69.136,22.968z"/>
<rect x="25.811" y="6.671" fill="#FFFFFF" width="23.847" height="31.574"/>
<path fill="#FFFFFF" d="M49.002,36.544c0.789-0.511,1.582-1.022,2.293-1.651c7.497-6.659,7.497-17.469,0-24.127
	c-0.546-0.49-1.282-0.951-1.88-1.372 M26.013,9.211c-0.597,0.413-1.328,1.064-1.879,1.555c-7.492,6.658-7.492,17.468,0,24.127
	c0.712,0.629,1.505,1.141,2.297,1.651"/>
<path fill="none" stroke="#010101" stroke-width="2.6475" stroke-linecap="square" stroke-linejoin="bevel" d="M49.002,36.544
	c0.789-0.511,1.582-1.022,2.293-1.651c7.497-6.659,7.497-17.469,0-24.127c-0.546-0.49-1.282-0.951-1.88-1.372 M26.013,9.211
	c-0.597,0.413-1.328,1.064-1.879,1.555c-7.492,6.658-7.492,17.468,0,24.127c0.712,0.629,1.505,1.141,2.297,1.651"/>
<path fill="#FFFFFF" d="M82.221,14.125h6.769c2.018,0,3.577,0.342,4.667,1.032c1.095,0.686,1.643,1.661,1.643,2.927
	c0,0.982-0.279,1.759-0.843,2.34c-0.559,0.579-1.378,0.939-2.464,1.084c1.305,0.228,2.312,0.709,3.031,1.438
	c0.724,0.725,1.087,1.627,1.087,2.714c0,1.431-0.593,2.539-1.783,3.314c-1.187,0.781-2.88,1.172-5.078,1.172h-7.029V14.125
	 M84.871,15.908v4.827h3.924c1.294,0,2.255-0.196,2.883-0.591c0.64-0.398,0.957-1.009,0.957-1.825c0-0.807-0.317-1.409-0.957-1.811
	c-0.628-0.402-1.589-0.601-2.883-0.601H84.871 M84.871,22.496v5.868h4.25c1.424,0,2.48-0.238,3.163-0.721
	c0.689-0.485,1.033-1.223,1.033-2.217c0-1.002-0.344-1.741-1.033-2.21c-0.683-0.482-1.739-0.721-3.163-0.721H84.871"/>
<polyline fill="#FFFFFF" points="96.478,14.125 99.323,14.125 104.755,20.712 110.146,14.125 112.99,14.125 106.064,22.517 
	106.064,30.146 103.404,30.146 103.404,22.517 96.478,14.125 "/>
<rect x="111.064" y="23.245" fill="#FFFFFF" width="7.068" height="1.76"/>
<polyline fill="#FFFFFF" points="122.095,14.125 125.658,14.125 134.342,27.526 134.342,14.125 136.914,14.125 136.914,30.146 
	133.346,30.146 124.664,16.743 124.664,30.146 122.095,30.146 122.095,14.125 "/>
<path fill="#FFFFFF" d="M156.848,15.358v2.287c-0.893-0.679-1.845-1.188-2.859-1.524c-1.004-0.334-2.076-0.504-3.213-0.504
	c-2.239,0-3.951,0.562-5.141,1.688c-1.191,1.114-1.785,2.73-1.785,4.85c0,2.108,0.594,3.722,1.785,4.849
	c1.189,1.115,2.901,1.674,5.141,1.674c1.137,0,2.209-0.168,3.213-0.505c1.015-0.338,1.967-0.846,2.859-1.524v2.263
	c-0.927,0.516-1.91,0.903-2.951,1.161c-1.031,0.256-2.125,0.388-3.277,0.388c-2.963,0-5.299-0.742-7.006-2.224
	c-1.704-1.487-2.558-3.514-2.558-6.081c0-2.579,0.854-4.604,2.558-6.086c1.707-1.486,4.043-2.234,7.006-2.234
	c1.171,0,2.273,0.129,3.303,0.388C154.965,14.472,155.941,14.852,156.848,15.358"/>
<rect x="159.643" y="23.245" fill="#FFFFFF" width="7.066" height="1.76"/>
<path fill="#FFFFFF" d="M182.41,14.654v2.11c-1.008-0.394-1.957-0.686-2.846-0.879c-0.892-0.193-1.753-0.287-2.582-0.287
	c-1.445,0-2.559,0.227-3.348,0.686c-0.777,0.455-1.168,1.106-1.168,1.953c0,0.704,0.262,1.243,0.773,1.606
	c0.525,0.357,1.512,0.648,2.967,0.869l1.597,0.269c1.979,0.307,3.435,0.854,4.368,1.632c0.945,0.774,1.418,1.812,1.418,3.113
	c0,1.55-0.637,2.729-1.914,3.529c-1.268,0.8-3.133,1.203-5.587,1.203c-0.927,0-1.914-0.088-2.968-0.258
	c-1.037-0.172-2.116-0.426-3.238-0.763v-2.235c1.076,0.498,2.129,0.87,3.162,1.12c1.031,0.249,2.045,0.375,3.044,0.375
	c1.513,0,2.681-0.243,3.5-0.732c0.823-0.484,1.231-1.179,1.231-2.081c0-0.785-0.293-1.398-0.892-1.843
	c-0.585-0.443-1.551-0.776-2.897-1.001l-1.611-0.254c-1.977-0.322-3.408-0.826-4.288-1.513c-0.886-0.69-1.325-1.643-1.325-2.866
	c0-1.419,0.604-2.533,1.823-3.349c1.226-0.815,2.905-1.226,5.048-1.226c0.92,0,1.854,0.069,2.807,0.206
	C180.438,14.174,181.414,14.379,182.41,14.654"/>
<path fill="#FFFFFF" d="M193.293,14.125h3.006l7.463,16.021h-2.754l-1.784-4.109h-8.828l-1.783,4.109h-2.792L193.293,14.125
	 M194.79,16.261l-3.595,7.974h7.201L194.79,16.261"/>
<path fill="#010101" d="M36.844,17.614v1.932c-0.75-0.572-1.558-1.002-2.412-1.287c-0.85-0.283-1.753-0.424-2.713-0.424
	c-1.892,0-3.339,0.474-4.342,1.424c-1.002,0.938-1.505,2.305-1.505,4.094c0,1.781,0.502,3.146,1.505,4.094
	c1.003,0.94,2.45,1.415,4.342,1.415c0.96,0,1.863-0.144,2.713-0.428c0.854-0.28,1.662-0.715,2.412-1.286v1.911
	c-0.781,0.436-1.611,0.763-2.488,0.978c-0.872,0.222-1.795,0.326-2.772,0.326c-2.5,0-4.47-0.621-5.911-1.872
	c-1.439-1.259-2.158-2.969-2.158-5.138c0-2.177,0.719-3.888,2.158-5.139c1.44-1.256,3.411-1.884,5.911-1.884
	c0.993,0,1.922,0.108,2.792,0.326C35.255,16.869,36.078,17.186,36.844,17.614"/>
<path fill="#010101" d="M52.705,17.614v1.932c-0.754-0.572-1.558-1.002-2.416-1.287c-0.85-0.283-1.753-0.424-2.714-0.424
	c-1.886,0-3.334,0.474-4.336,1.424c-1.008,0.938-1.508,2.305-1.508,4.094c0,1.781,0.5,3.146,1.508,4.094
	c1.002,0.94,2.45,1.415,4.336,1.415c0.961,0,1.864-0.144,2.714-0.428c0.857-0.28,1.662-0.715,2.416-1.286v1.911
	c-0.785,0.436-1.616,0.763-2.492,0.978c-0.873,0.222-1.795,0.326-2.767,0.326c-2.504,0-4.476-0.621-5.916-1.872
	c-1.438-1.259-2.159-2.969-2.159-5.138c0-2.177,0.721-3.888,2.159-5.139c1.439-1.256,3.411-1.884,5.916-1.884
	c0.987,0,1.918,0.108,2.79,0.326C51.112,16.869,51.936,17.186,52.705,17.614"/>
</svg>
